# xmcd
# 
# Track frame offsets:
#     150
#     14966
#     37186
#     52254
#     64630
#     81774
#     94316
#     114232
#     129979
#     144511
# 
# Disc length: 2204
# 
# Revision: 0
# Processed by: cddbd v1.5.2PL0 Copyright (c) Steve Scherf et al.
# Submitted via: fre:ac v1.0.27
# 
DISCID=8f089a0a
DTITLE=The Mismatch - Better Off This Way
DYEAR=2016
DGENRE=Folk
TTITLE0=Good Day
TTITLE1=Yours and Mine
TTITLE2=Honeybird
TTITLE3=The Ballad of rusty truck
TTITLE4=Sunday Monday
TTITLE5=Sunrise
TTITLE6=Addiction
TTITLE7=Julia
TTITLE8=Chicken Song
TTITLE9=Where Do We Go
EXTD=
EXTT0=
EXTT1=
EXTT2=
EXTT3=
EXTT4=
EXTT5=
EXTT6=
EXTT7=
EXTT8=
EXTT9=
PLAYORDER=
